#Comment line ignore any data following # character 
#Hierarchical Translation and Rotation (.htr) file 
[Header]	
#Header keywords are followed by a single value 
FileType HTR		#Single word string
DataType HTRS		#Translation followed by rotation and scale data
FileVersion 1		#integer
NumSegments 84		#integer
NumFrames 2		#integer
DataFrameRate 30		#integer, data frame rate in this file
EulerRotationOrder ZYX
CalibrationUnits mm
RotationUnits Degrees
GlobalAxisofGravity Y
BoneLengthAxis Y
ScaleFactor 1.00
[SegmentNames&Hierarchy]
#CHILD	PARENT
MASTER GLOBAL
root MASTER
chest root
L_mid_tent01 root
R_mid_tent01 root
spine01 root
Bip01_Neck chest
L_humerus chest
R_humerus chest
weapon_bone chest
Bip01_Head Bip01_Neck
eye_left_bone Bip01_Head
eye_right_bone Bip01_Head
L_forearm L_humerus
L_front_hand L_forearm
L_weapon_bone L_forearm
L_front_hand01_01 L_front_hand
L_front_hand02_01 L_front_hand
L_front_hand03_01 L_front_hand
L_front_hand01_02 L_front_hand01_01
L_front_hand02_02 L_front_hand02_01
L_front_hand03_02 L_front_hand03_01
R_forearm R_humerus
R_front_hand R_forearm
R_weapon_bone R_forearm
R_front_hand01_01 R_front_hand
R_front_hand02_01 R_front_hand
R_front_hand03_01 R_front_hand
R_front_hand01_02 R_front_hand01_01
R_front_hand02_02 R_front_hand02_01
R_front_hand03_02 R_front_hand03_01
null_rope01_connect L_mid_tent01
Rope1_Seg01 null_rope01_connect
Rope1_Seg02 Rope1_Seg01
Rope1_Seg03 Rope1_Seg02
Rope1_Seg04 Rope1_Seg03
Rope1_Seg05 Rope1_Seg04
Rope1_Seg06 Rope1_Seg05
Rope1_Seg07 Rope1_Seg06
Rope1_Seg09 Rope1_Seg07
L_mid_hand01 Rope1_Seg09
L_mid_hand02 Rope1_Seg09
L_mid_hand03 Rope1_Seg09
null_rope02_connect R_mid_tent01
Rope2_Seg01 null_rope02_connect
Rope2_Seg02 Rope2_Seg01
Rope2_Seg03 Rope2_Seg02
Rope2_Seg04 Rope2_Seg03
Rope2_Seg05 Rope2_Seg04
Rope2_Seg06 Rope2_Seg05
Rope2_Seg07 Rope2_Seg06
Rope2_Seg09 Rope2_Seg07
R_mid_hand01 Rope2_Seg09
R_mid_hand02 Rope2_Seg09
R_mid_hand03 Rope2_Seg09
spine02 spine01
spine03 spine02
pelvis spine03
null_rope03_connect pelvis
null_rope04_connect pelvis
Rope3_Seg01 null_rope03_connect
Rope3_Seg02 Rope3_Seg01
Rope3_Seg03 Rope3_Seg02
Rope3_Seg04 Rope3_Seg03
Rope3_Seg05 Rope3_Seg04
Rope3_Seg06 Rope3_Seg05
Rope3_Seg07 Rope3_Seg06
Rope3_Seg08 Rope3_Seg07
Rope3_Seg09 Rope3_Seg08
R_rear_hand01 Rope3_Seg09
R_rear_hand02 Rope3_Seg09
R_rear_hand03 Rope3_Seg09
Rope4_Seg01 null_rope04_connect
Rope4_Seg02 Rope4_Seg01
Rope4_Seg03 Rope4_Seg02
Rope4_Seg04 Rope4_Seg03
Rope4_Seg05 Rope4_Seg04
Rope4_Seg06 Rope4_Seg05
Rope4_Seg07 Rope4_Seg06
Rope4_Seg08 Rope4_Seg07
Rope4_Seg09 Rope4_Seg08
L_rear_hand01 Rope4_Seg09
L_rear_hand02 Rope4_Seg09
L_rear_hand03 Rope4_Seg09
[BasePosition]
#SegmentName Tx, Ty, Tz, Rx, Ry, Rz, BoneLength
MASTER 0.000000 0.000000 0.000000 -90.000000 0.000000 0.000000 10.000000 
root 0.000000 0.000000 0.000000 0.000000 0.000000 0.000000 10.000000 
chest 0.000000 0.000000 0.000000 0.000000 0.000000 0.000000 10.000000 
L_mid_tent01 0.000000 0.000000 0.000000 0.000000 0.000000 0.000000 10.000000 
R_mid_tent01 0.000000 0.000000 0.000000 0.000000 0.000000 0.000000 10.000000 
spine01 0.000000 0.000000 0.000000 0.000000 0.000000 0.000000 10.000000 
Bip01_Neck 0.000000 0.000000 0.000000 0.000000 0.000000 0.000000 10.000000 
L_humerus 0.000000 0.000000 0.000000 0.000000 0.000000 0.000000 10.000000 
R_humerus 0.000000 0.000000 0.000000 0.000000 0.000000 0.000000 10.000000 
weapon_bone 0.000000 0.000000 0.000000 0.000000 0.000000 0.000000 10.000000 
Bip01_Head 0.000000 0.000000 0.000000 0.000000 0.000000 0.000000 10.000000 
eye_left_bone 0.000000 0.000000 0.000000 0.000000 0.000000 0.000000 10.000000 
eye_right_bone 0.000000 0.000000 0.000000 0.000000 0.000000 0.000000 10.000000 
L_forearm 0.000000 0.000000 0.000000 0.000000 0.000000 0.000000 10.000000 
L_front_hand 0.000000 0.000000 0.000000 0.000000 0.000000 0.000000 10.000000 
L_weapon_bone 0.000000 0.000000 0.000000 0.000000 0.000000 0.000000 10.000000 
L_front_hand01_01 0.000000 0.000000 0.000000 0.000000 0.000000 0.000000 10.000000 
L_front_hand02_01 0.000000 0.000000 0.000000 0.000000 0.000000 0.000000 10.000000 
L_front_hand03_01 0.000000 0.000000 0.000000 0.000000 0.000000 0.000000 10.000000 
L_front_hand01_02 0.000000 0.000000 0.000000 0.000000 0.000000 0.000000 10.000000 
L_front_hand02_02 0.000000 0.000000 0.000000 0.000000 0.000000 0.000000 10.000000 
L_front_hand03_02 0.000000 0.000000 0.000000 0.000000 0.000000 0.000000 10.000000 
R_forearm 0.000000 0.000000 0.000000 0.000000 0.000000 0.000000 10.000000 
R_front_hand 0.000000 0.000000 0.000000 0.000000 0.000000 0.000000 10.000000 
R_weapon_bone 0.000000 0.000000 0.000000 0.000000 0.000000 0.000000 10.000000 
R_front_hand01_01 0.000000 0.000000 0.000000 0.000000 0.000000 0.000000 10.000000 
R_front_hand02_01 0.000000 0.000000 0.000000 0.000000 0.000000 0.000000 10.000000 
R_front_hand03_01 0.000000 0.000000 0.000000 0.000000 0.000000 0.000000 10.000000 
R_front_hand01_02 0.000000 0.000000 0.000000 0.000000 0.000000 0.000000 10.000000 
R_front_hand02_02 0.000000 0.000000 0.000000 0.000000 0.000000 0.000000 10.000000 
R_front_hand03_02 0.000000 0.000000 0.000000 0.000000 0.000000 0.000000 10.000000 
null_rope01_connect 0.000000 0.000000 0.000000 0.000000 0.000000 0.000000 10.000000 
Rope1_Seg01 0.000000 0.000000 0.000000 0.000000 0.000000 0.000000 10.000000 
Rope1_Seg02 0.000000 0.000000 0.000000 0.000000 0.000000 0.000000 10.000000 
Rope1_Seg03 0.000000 0.000000 0.000000 0.000000 0.000000 0.000000 10.000000 
Rope1_Seg04 0.000000 0.000000 0.000000 0.000000 0.000000 0.000000 10.000000 
Rope1_Seg05 0.000000 0.000000 0.000000 0.000000 0.000000 0.000000 10.000000 
Rope1_Seg06 0.000000 0.000000 0.000000 0.000000 0.000000 0.000000 10.000000 
Rope1_Seg07 0.000000 0.000000 0.000000 0.000000 0.000000 0.000000 10.000000 
Rope1_Seg09 0.000000 0.000000 0.000000 0.000000 0.000000 0.000000 10.000000 
L_mid_hand01 0.000000 0.000000 0.000000 0.000000 0.000000 0.000000 10.000000 
L_mid_hand02 0.000000 0.000000 0.000000 0.000000 0.000000 0.000000 10.000000 
L_mid_hand03 0.000000 0.000000 0.000000 0.000000 0.000000 0.000000 10.000000 
null_rope02_connect 0.000000 0.000000 0.000000 0.000000 0.000000 0.000000 10.000000 
Rope2_Seg01 0.000000 0.000000 0.000000 0.000000 0.000000 0.000000 10.000000 
Rope2_Seg02 0.000000 0.000000 0.000000 0.000000 0.000000 0.000000 10.000000 
Rope2_Seg03 0.000000 0.000000 0.000000 0.000000 0.000000 0.000000 10.000000 
Rope2_Seg04 0.000000 0.000000 0.000000 0.000000 0.000000 0.000000 10.000000 
Rope2_Seg05 0.000000 0.000000 0.000000 0.000000 0.000000 0.000000 10.000000 
Rope2_Seg06 0.000000 0.000000 0.000000 0.000000 0.000000 0.000000 10.000000 
Rope2_Seg07 0.000000 0.000000 0.000000 0.000000 0.000000 0.000000 10.000000 
Rope2_Seg09 0.000000 0.000000 0.000000 0.000000 0.000000 0.000000 10.000000 
R_mid_hand01 0.000000 0.000000 0.000000 0.000000 0.000000 0.000000 10.000000 
R_mid_hand02 0.000000 0.000000 0.000000 0.000000 0.000000 0.000000 10.000000 
R_mid_hand03 0.000000 0.000000 0.000000 0.000000 0.000000 0.000000 10.000000 
spine02 0.000000 0.000000 0.000000 0.000000 0.000000 0.000000 10.000000 
spine03 0.000000 0.000000 0.000000 0.000000 0.000000 0.000000 10.000000 
pelvis 0.000000 0.000000 0.000000 0.000000 0.000000 0.000000 10.000000 
null_rope03_connect 0.000000 0.000000 0.000000 0.000000 0.000000 0.000000 10.000000 
null_rope04_connect 0.000000 0.000000 0.000000 0.000000 0.000000 0.000000 10.000000 
Rope3_Seg01 0.000000 0.000000 0.000000 0.000000 0.000000 0.000000 10.000000 
Rope3_Seg02 0.000000 0.000000 0.000000 0.000000 0.000000 0.000000 10.000000 
Rope3_Seg03 0.000000 0.000000 0.000000 0.000000 0.000000 0.000000 10.000000 
Rope3_Seg04 0.000000 0.000000 0.000000 0.000000 0.000000 0.000000 10.000000 
Rope3_Seg05 0.000000 0.000000 0.000000 0.000000 0.000000 0.000000 10.000000 
Rope3_Seg06 0.000000 0.000000 0.000000 0.000000 0.000000 0.000000 10.000000 
Rope3_Seg07 0.000000 0.000000 0.000000 0.000000 0.000000 0.000000 10.000000 
Rope3_Seg08 0.000000 0.000000 0.000000 0.000000 0.000000 0.000000 10.000000 
Rope3_Seg09 0.000000 0.000000 0.000000 0.000000 0.000000 0.000000 10.000000 
R_rear_hand01 0.000000 0.000000 0.000000 0.000000 0.000000 0.000000 10.000000 
R_rear_hand02 0.000000 0.000000 0.000000 0.000000 0.000000 0.000000 10.000000 
R_rear_hand03 0.000000 0.000000 0.000000 0.000000 0.000000 0.000000 10.000000 
Rope4_Seg01 0.000000 0.000000 0.000000 0.000000 0.000000 0.000000 10.000000 
Rope4_Seg02 0.000000 0.000000 0.000000 0.000000 0.000000 0.000000 10.000000 
Rope4_Seg03 0.000000 0.000000 0.000000 0.000000 0.000000 0.000000 10.000000 
Rope4_Seg04 0.000000 0.000000 0.000000 0.000000 0.000000 0.000000 10.000000 
Rope4_Seg05 0.000000 0.000000 0.000000 0.000000 0.000000 0.000000 10.000000 
Rope4_Seg06 0.000000 0.000000 0.000000 0.000000 0.000000 0.000000 10.000000 
Rope4_Seg07 0.000000 0.000000 0.000000 0.000000 0.000000 0.000000 10.000000 
Rope4_Seg08 0.000000 0.000000 0.000000 0.000000 0.000000 0.000000 10.000000 
Rope4_Seg09 0.000000 0.000000 0.000000 0.000000 0.000000 0.000000 10.000000 
L_rear_hand01 0.000000 0.000000 0.000000 0.000000 0.000000 0.000000 10.000000 
L_rear_hand02 0.000000 0.000000 0.000000 0.000000 0.000000 0.000000 10.000000 
L_rear_hand03 0.000000 0.000000 0.000000 0.000000 0.000000 0.000000 10.000000 
#Beginning of Data. Separated by tabs
#Fr	Tx	Ty	Tz	Rx	Ry	Rz	SF
[MASTER]
41 -0.000768 5229.559570 -3251.704590 0.001660 0.001660 0.001660 6158.074219
42 -0.000785 5370.401367 -3215.927246 0.001660 0.001660 0.001660 6259.664551
[root]
41 -4.712245 -85.671997 1004.091614 -80.215477 -33.290668 -93.068733 1007.750854
42 -5.938407 -74.855339 1103.611572 -81.417076 -34.401619 -92.737259 1106.163208
[chest]
41 -84.512650 -34.090519 0.000000 -4.558702 0.396131 163.597946 91.129311
42 -84.512650 -34.090519 0.000000 -3.978374 0.472987 165.448196 91.129311
[L_mid_tent01]
41 27.299227 22.177708 -249.918289 -0.173841 36.621185 68.161697 252.381165
42 27.299221 22.177713 -249.918289 -0.173841 36.621185 68.161697 252.381165
[R_mid_tent01]
41 23.228794 24.509907 226.238495 161.842850 -26.101652 83.323860 228.744751
42 23.228794 24.509907 226.238495 161.842850 -26.101652 83.323860 228.744751
[spine01]
41 -0.361383 -0.195265 0.000000 0.001845 0.001451 13.654368 0.410763
42 -0.361383 -0.195265 0.000000 0.001845 0.001451 13.654368 0.410763
[Bip01_Neck]
41 165.484543 71.581718 0.000119 176.643677 -1.657967 43.431911 180.302734
42 165.484543 71.581718 0.000119 176.643677 -1.657967 43.431911 180.302734
[L_humerus]
41 -13.983130 -135.272980 -120.471481 170.634048 33.318432 -94.758965 181.680161
42 -13.983130 -135.272980 -120.471481 169.633408 40.917217 -96.415001 181.680161
[R_humerus]
41 -13.983309 -135.273102 125.287651 -176.578827 -29.254711 -87.217079 184.909012
42 -13.983309 -135.273102 125.287651 -176.268723 -36.890968 -87.785591 184.909012
[weapon_bone]
41 235.964890 -300.705902 0.000000 0.000000 -89.951546 -128.212341 382.234833
42 235.964890 -300.705902 0.000000 0.000000 -89.951546 -128.212341 382.234833
[Bip01_Head]
41 213.418686 185.787689 10.845459 5.200446 6.151311 -43.834991 283.164673
42 213.428329 185.761261 11.186295 5.200446 6.151311 -43.834991 283.167847
[eye_left_bone]
41 -24.626970 125.451866 -64.772606 0.000000 -90.000000 -99.840431 143.318359
42 -24.626970 125.451866 -64.772606 0.000000 -90.000000 -99.840431 143.318359
[eye_right_bone]
41 -24.626970 125.451866 64.327362 0.000000 -89.965736 80.156380 143.117676
42 -24.626970 125.451866 64.327362 0.000000 -89.965736 80.156380 143.117676
[L_forearm]
41 322.776093 0.000000 -0.000119 0.000119 -0.002344 -95.807457 322.776093
42 322.776093 0.000000 -0.000119 0.000119 -0.002344 -95.807457 322.776093
[L_front_hand]
41 241.149185 -0.042021 -3.300071 -178.667953 -1.835447 -27.422350 241.171753
42 241.149185 -0.042021 -3.300071 -178.667953 -1.835447 -27.422350 241.171753
[L_weapon_bone]
41 156.183838 0.000000 0.000000 0.000014 0.000007 0.000001 156.183838
42 156.183838 0.000000 0.000000 0.000014 0.000007 0.000001 156.183838
[L_front_hand01_01]
41 86.095154 20.947098 -0.655860 -0.366594 -0.477154 75.385574 88.609184
42 86.095154 20.947098 -0.655860 -0.366594 -0.477154 75.385574 88.609184
[L_front_hand02_01]
41 86.935165 -11.437475 24.513514 154.399796 -59.883835 -61.369587 91.046425
42 86.935165 -11.437475 24.513514 154.399796 -59.883835 -61.369587 91.046425
[L_front_hand03_01]
41 86.637497 -14.123976 -20.424902 -153.913849 58.118122 -62.702866 90.126129
42 86.637497 -14.123976 -20.424902 -153.913849 58.118122 -62.702866 90.126129
[L_front_hand01_02]
41 71.020905 -0.000179 0.000030 0.000334 -0.002323 -106.375572 71.020905
42 71.020905 -0.000179 0.000030 0.000334 -0.002323 -106.376396 71.020905
[L_front_hand02_02]
41 71.020927 -0.000119 0.000060 0.000334 -0.002323 -106.375572 71.020927
42 71.020927 -0.000119 0.000060 0.000334 -0.002323 -106.376396 71.020927
[L_front_hand03_02]
41 71.020905 -0.000060 0.000060 0.000334 -0.002323 -106.375572 71.020905
42 71.020905 -0.000060 0.000060 0.000334 -0.002323 -106.376396 71.020905
[R_forearm]
41 322.776428 -0.000060 0.000030 0.209504 0.012586 -94.339050 322.776428
42 322.776428 -0.000060 0.000030 0.209504 0.012586 -94.339050 322.776428
[R_front_hand]
41 238.847015 -0.006795 2.210259 -2.635298 -10.645461 -26.312506 238.857239
42 238.847015 -0.006795 2.210259 -2.635298 -10.645461 -26.312506 238.857239
[R_weapon_bone]
41 155.664093 0.002503 -0.000030 0.003487 0.001180 -90.988930 155.664078
42 155.664093 0.002503 -0.000030 0.003487 0.001180 -90.988930 155.664078
[R_front_hand01_01]
41 87.624611 14.231146 22.918642 -154.633484 -59.950607 61.746033 91.683487
42 87.624611 14.231146 22.918642 -154.633499 -59.950619 61.746044 91.683487
[R_front_hand02_01]
41 89.356956 14.367283 -19.491137 154.602661 58.302849 63.744389 92.579636
42 89.356956 14.367283 -19.491137 154.602661 58.302849 63.744389 92.579636
[R_front_hand03_01]
41 87.286232 -22.307278 -0.143439 0.162155 -0.423168 -75.767921 90.091743
42 87.286232 -22.307278 -0.143439 0.162155 -0.423168 -75.767921 90.091743
[R_front_hand01_02]
41 71.020905 0.000060 0.000119 0.002323 -0.000334 106.381714 71.020905
42 71.020905 0.000060 0.000119 0.002323 -0.000334 106.381714 71.020905
[R_front_hand02_02]
41 71.020844 -0.000030 -0.000119 0.002323 -0.000334 106.381714 71.020836
42 71.020844 -0.000030 -0.000119 0.002323 -0.000334 106.381714 71.020836
[R_front_hand03_02]
41 71.020905 0.000000 0.000030 0.002323 -0.000334 106.381714 71.020905
42 71.020905 0.000000 0.000030 0.002323 -0.000334 106.381714 71.020905
[null_rope01_connect]
41 328.732483 0.000000 -0.000238 -116.083229 -59.550499 169.625595 328.732483
42 328.732483 0.000000 -0.000238 -116.351631 -58.780144 171.176178 328.732483
[Rope1_Seg01]
41 0.000000 0.000000 0.000000 163.438492 41.924763 -150.461227 0.000000
42 0.000000 0.000000 0.000000 167.005737 44.165791 -150.256805 0.000000
[Rope1_Seg02]
41 139.999863 -0.000179 0.000000 17.917747 -36.127705 4.500673 139.999863
42 139.999863 -0.000179 0.000000 15.249247 -32.518715 5.754563 139.999863
[Rope1_Seg03]
41 139.999924 0.000060 -0.000060 -6.626698 -44.037937 22.029558 139.999924
42 139.999924 0.000060 -0.000060 -5.092479 -42.778606 20.896305 139.999924
[Rope1_Seg04]
41 139.999924 -0.000060 -0.000119 -1.751391 -11.600406 11.368801 139.999924
42 139.999924 -0.000060 -0.000119 -2.705285 -14.200040 12.270062 139.999924
[Rope1_Seg05]
41 139.999832 0.000119 -0.000060 3.417484 -1.468704 8.685171 139.999832
42 139.999832 0.000119 -0.000060 3.548248 -2.819762 10.521495 139.999832
[Rope1_Seg06]
41 139.999954 0.000119 -0.000060 1.366453 -1.923298 4.511110 139.999954
42 139.999954 0.000119 -0.000060 1.985006 -2.326821 5.747373 139.999954
[Rope1_Seg07]
41 139.999985 0.000060 0.000000 0.945218 -1.263421 2.820728 139.999985
42 139.999985 0.000060 0.000000 1.285975 -1.556189 3.447243 139.999985
[Rope1_Seg09]
41 121.602913 0.000119 -0.000089 -89.793175 -1.359789 0.847147 121.602913
42 121.602913 0.000119 -0.000089 -89.793175 -1.359789 0.847147 121.602913
[L_mid_hand01]
41 103.859421 1.038730 8.195221 130.544373 -67.584534 -38.866943 104.187431
42 103.859421 1.038730 8.195221 130.544373 -67.584534 -38.866943 104.187431
[L_mid_hand02]
41 105.572853 -4.139662 -10.864139 -168.923172 43.409321 -73.498909 106.211075
42 105.572853 -4.139662 -10.864139 -168.923172 43.409309 -73.498886 106.211075
[L_mid_hand03]
41 104.641464 17.579376 -3.913581 -6.012627 17.808174 74.893669 106.179977
42 104.641464 17.579376 -3.913581 -6.012627 17.808174 74.893669 106.179977
[null_rope02_connect]
41 328.732849 0.000179 -0.000119 -113.623344 53.764263 19.832806 328.732849
42 328.732849 0.000179 -0.000119 -111.402344 54.480354 21.264826 328.732849
[Rope2_Seg01]
41 0.000042 0.000017 0.000136 8.618579 3.028321 -37.956440 0.000143
42 0.000042 0.000014 0.000139 6.562029 4.297010 -37.716282 0.000146
[Rope2_Seg02]
41 139.999741 -0.000060 -0.000119 -65.137405 15.147319 5.188534 139.999756
42 139.999741 -0.000060 -0.000119 -70.536407 15.150978 5.229360 139.999756
[Rope2_Seg03]
41 140.000107 0.000030 0.000000 -55.828979 6.979584 79.432747 140.000107
42 140.000107 0.000030 0.000000 -55.602074 1.925496 78.579391 140.000107
[Rope2_Seg04]
41 139.999802 0.000000 -0.000060 -4.251231 -28.360619 21.178383 139.999802
42 139.999802 0.000000 -0.000060 -4.408526 -28.977289 21.080305 139.999802
[Rope2_Seg05]
41 139.999985 -0.000060 0.000119 -1.165322 -6.830756 1.205866 139.999985
42 139.999985 -0.000060 0.000119 -1.726379 -8.428007 1.105938 139.999985
[Rope2_Seg06]
41 139.999893 -0.000030 -0.000119 -0.912585 -4.528300 0.839603 139.999893
42 139.999893 -0.000030 -0.000119 -1.707432 -5.849909 0.495033 139.999893
[Rope2_Seg07]
41 139.999893 0.000060 -0.000060 -0.361962 -2.829763 0.901112 139.999893
42 139.999893 0.000060 -0.000060 -0.797995 -3.490429 0.748400 139.999893
[Rope2_Seg09]
41 121.338966 0.000089 -0.000060 33.793236 -1.359788 -0.847141 121.338966
42 121.338966 0.000089 -0.000060 33.793236 -1.359788 -0.847141 121.338966
[R_mid_hand01]
41 104.680779 11.144459 -10.335981 -16.212063 45.237247 70.462852 105.778534
42 104.680779 11.144459 -10.335981 -16.212063 45.237247 70.462852 105.778534
[R_mid_hand02]
41 104.070427 2.443552 8.231699 49.067368 -67.749771 39.286453 104.424065
42 104.070427 2.443552 8.231699 49.067368 -67.749771 39.286453 104.424065
[R_mid_hand03]
41 106.028137 -11.221827 -5.996406 -177.101105 15.551026 -76.585571 106.788818
42 106.028137 -11.221827 -5.996406 -177.101105 15.551026 -76.585571 106.788818
[spine02]
41 129.756927 0.001550 0.000119 -1.023899 -3.926965 6.770993 129.756927
42 129.756927 0.001550 0.000119 -1.023899 -3.926965 6.770993 129.756927
[spine03]
41 78.614426 0.087162 -4.898872 1.040681 4.146420 4.212376 78.766960
42 78.614441 0.087155 -4.898872 1.040681 4.146420 4.212376 78.766975
[pelvis]
41 169.435242 0.051022 0.000000 0.019518 -0.190233 -10.721436 169.435257
42 169.435242 0.051022 0.000000 0.019518 -0.190233 -10.721436 169.435257
[null_rope03_connect]
41 -1.257226 -2.466202 137.391083 15.296771 -81.795654 94.375053 137.418976
42 -1.257226 -2.466202 137.391083 16.111927 -82.906380 94.620239 137.418976
[null_rope04_connect]
41 -1.259640 -2.480268 -137.844437 15.296771 -81.795654 94.375053 137.872513
42 -1.259640 -2.480268 -137.844437 16.111927 -82.906380 94.620239 137.872513
[Rope3_Seg01]
41 -0.000002 -0.000551 -0.000153 -142.776794 -41.035015 -64.485596 0.000572
42 -0.000002 -0.000563 -0.000153 -143.672836 -41.523300 -63.374268 0.000583
[Rope3_Seg02]
41 139.999924 -0.000119 0.000060 -22.946501 7.332331 -37.854965 139.999924
42 139.999924 -0.000119 0.000060 -23.206038 6.395428 -37.897182 139.999924
[Rope3_Seg03]
41 139.999924 -0.000119 0.000119 -33.676601 22.900454 -22.585556 139.999924
42 139.999924 -0.000119 0.000119 -38.003021 21.560938 -25.501921 139.999924
[Rope3_Seg04]
41 139.999924 0.000119 0.000000 -74.110291 26.987278 -60.365009 139.999924
42 139.999924 0.000119 0.000000 -72.464981 34.142979 -56.381847 139.999924
[Rope3_Seg05]
41 139.999924 -0.000238 0.000060 -15.093789 34.915642 -3.458405 139.999924
42 139.999924 -0.000238 0.000060 -9.390210 31.265047 0.078737 139.999924
[Rope3_Seg06]
41 139.999893 -0.000119 -0.000060 -0.466056 5.945280 1.388925 139.999893
42 139.999893 -0.000119 -0.000060 -0.158339 6.015787 1.385033 139.999893
[Rope3_Seg07]
41 139.999771 0.000060 -0.000119 0.170488 3.101935 0.753355 139.999771
42 139.999771 0.000060 -0.000119 0.324062 3.175174 0.742895 139.999771
[Rope3_Seg08]
41 139.999985 -0.000060 0.000000 0.383509 1.686868 0.403004 139.999985
42 139.999985 -0.000060 0.000000 0.472593 1.736058 0.394631 139.999985
[Rope3_Seg09]
41 90.185997 -0.000179 -0.000060 89.793228 -1.359877 -0.847183 90.185997
42 90.185997 -0.000179 -0.000060 89.793228 -1.359877 -0.847183 90.185997
[R_rear_hand01]
41 103.366196 -6.073594 -10.757982 -177.714203 24.565960 -73.910950 104.101845
42 103.366196 -6.073594 -10.757982 -177.714203 24.565960 -73.910950 104.101845
[R_rear_hand02]
41 100.509819 12.039542 -7.992327 -12.874829 36.868488 72.167213 101.543350
42 100.509819 12.039542 -7.992327 -12.874829 36.868488 72.167213 101.543350
[R_rear_hand03]
41 101.539970 5.215704 5.435467 71.484581 -71.816628 21.513813 101.819031
42 101.539970 5.215704 5.435467 71.484581 -71.816628 21.513813 101.819031
[Rope4_Seg01]
41 -0.000042 -0.000021 0.000000 68.777428 -37.577778 -130.222458 0.000047
42 -0.000042 -0.000017 0.000000 70.859489 -39.197296 -131.827759 0.000045
[Rope4_Seg02]
41 139.999985 0.000060 0.000119 23.052223 -34.607475 2.774189 139.999985
42 139.999985 0.000060 0.000119 24.512798 -34.607510 3.531145 139.999985
[Rope4_Seg03]
41 139.999924 0.000000 -0.000238 49.948528 -23.679390 24.367252 139.999924
42 139.999924 0.000000 -0.000238 52.148651 -24.673412 23.916746 139.999924
[Rope4_Seg04]
41 139.999985 0.000000 0.000119 42.151203 -28.585186 59.675835 139.999985
42 139.999985 0.000000 0.000119 39.286064 -19.756422 60.871002 139.999985
[Rope4_Seg05]
41 139.999802 -0.000060 -0.000119 7.915545 11.286079 28.574673 139.999802
42 139.999802 -0.000060 -0.000119 5.704688 11.442096 24.790270 139.999802
[Rope4_Seg06]
41 139.999924 0.000000 0.000060 0.219372 3.012268 4.887046 139.999924
42 139.999924 0.000000 0.000060 0.081955 3.052786 4.868647 139.999924
[Rope4_Seg07]
41 139.999802 0.000000 0.000000 0.053173 1.613215 2.604318 139.999802
42 139.999802 0.000000 0.000000 -0.019870 1.649522 2.628036 139.999802
[Rope4_Seg08]
41 139.999924 0.000000 0.000119 -1.540405 0.886589 1.434094 139.999924
42 139.999924 0.000000 0.000119 -1.581997 0.914517 1.448235 139.999924
[Rope4_Seg09]
41 90.185791 0.000060 0.000060 -135.617828 2.228885 0.850567 90.185791
42 90.185791 0.000060 0.000060 -135.617828 2.228885 0.850567 90.185791
[L_rear_hand01]
41 101.696655 -8.392275 -7.654577 -12.874829 -36.868488 107.832764 102.329041
42 101.696655 -8.392275 -7.654577 -12.874829 -36.868488 107.832764 102.329041
[L_rear_hand02]
41 102.726799 -1.568258 5.773216 71.484581 71.816628 158.486160 102.900848
42 102.726799 -1.568258 5.773216 71.484581 71.816628 158.486160 102.900848
[L_rear_hand03]
41 104.552910 9.721220 -10.420293 -177.714203 -24.565960 -106.089035 105.519653
42 104.552910 9.721220 -10.420293 -177.714203 -24.565960 -106.089035 105.519653
